<?xml version="1.0" standalone="no"?>
<!DOCTYPE svg PUBLIC "-//W3C//DTD SVG 20010904//EN"
 "http://www.w3.org/TR/2001/REC-SVG-20010904/DTD/svg10.dtd">
<svg version="1.0" xmlns="http://www.w3.org/2000/svg"
 width="194.000000pt" height="194.000000pt" viewBox="0 0 194.000000 194.000000"
 preserveAspectRatio="xMidYMid meet">

<g transform="translate(0.000000,194.000000) scale(0.100000,-0.100000)"
fill="#000000" stroke="none">
<path d="M340 1556 l0 -304 22 6 c14 3 19 2 14 -6 -4 -8 0 -12 10 -12 16 0 16
-1 1 -12 -9 -7 -18 -29 -20 -48 -3 -28 -4 -26 -3 9 0 27 -5 46 -12 49 -9 3
-12 -17 -12 -72 l0 -77 29 15 c16 9 30 13 33 11 2 -2 4 4 4 14 0 10 -5 17 -11
15 -6 -3 -12 10 -13 29 -2 24 2 34 13 34 17 0 20 -13 5 -22 -6 -3 -10 -11 -10
-16 0 -6 4 -8 9 -5 5 3 11 -1 15 -9 3 -8 12 -12 19 -9 11 4 13 -2 11 -23 -2
-15 -1 -22 2 -15 3 6 10 10 15 6 5 -3 9 4 9 14 0 16 6 19 30 17 43 -4 46 -11
8 -20 -33 -8 -32 -8 17 -15 27 -3 68 -3 90 1 22 5 54 8 70 7 30 -1 29 -1 -5
-8 -23 -5 -10 -7 40 -4 41 2 88 4 103 4 16 0 26 4 23 9 -3 5 -15 7 -26 4 -11
-3 -20 -1 -20 4 0 5 -22 8 -50 7 -29 -2 -50 1 -50 7 0 6 -8 5 -21 -2 -17 -9
-23 -8 -30 2 -6 11 -9 10 -14 -3 -8 -21 -61 -16 -84 7 -11 13 -12 15 -2 10 8
-5 25 -9 38 -10 19 0 23 5 24 30 2 30 2 30 8 -5 4 -22 9 -30 14 -23 4 7 14 10
23 6 9 -3 14 0 12 8 -2 7 6 14 17 16 11 1 14 0 8 -3 -14 -6 -18 -25 -5 -23 4
1 9 0 12 -1 24 -9 41 -5 52 13 23 37 17 51 -24 54 -28 3 -36 0 -32 -10 3 -8
-4 -13 -18 -14 -16 -2 -19 0 -9 6 17 11 4 18 -36 19 -22 0 -33 -5 -36 -16 -4
-16 -5 -16 -6 0 -1 14 -14 18 -68 21 -38 2 82 4 265 5 182 1 332 -2 332 -6 0
-5 -25 -7 -56 -4 -47 4 -55 2 -48 -9 12 -20 14 -40 3 -33 -5 3 -7 9 -4 14 11
18 -23 25 -130 26 l-111 1 4 -34 c4 -28 8 -34 23 -30 10 3 30 -4 44 -15 15
-11 29 -18 32 -14 4 3 14 -1 24 -10 17 -15 19 -15 34 0 11 10 22 13 33 8 14
-7 60 -9 89 -3 4 0 -2 7 -13 15 -18 13 -16 14 18 13 33 -2 68 -17 40 -17 -7 0
-12 -4 -12 -10 0 -5 16 -10 35 -10 21 0 35 5 35 12 0 9 3 9 12 0 16 -16 53
-15 67 2 7 8 8 16 4 18 -4 3 -3 3 4 2 7 -2 19 4 28 12 8 9 15 12 15 7 0 -5 -5
-14 -11 -20 -23 -23 3 -33 87 -33 54 0 83 4 79 10 -3 6 -1 10 4 10 6 0 11 -4
11 -10 0 -5 21 -10 48 -9 26 0 41 3 35 6 -19 7 -16 19 6 20 13 1 21 -6 24 -20
2 -12 5 -3 6 21 1 27 -3 42 -11 42 -9 0 -8 4 2 10 13 9 13 11 0 20 -10 6 -11
10 -2 10 9 0 12 71 12 320 l0 320 -99 0 -100 0 -4 -37 -4 -38 -1 38 c-1 20 -6
37 -12 37 -6 0 -11 -62 -13 -152 l-3 -153 -2 153 -2 152 -375 0 -374 0 -4 -87
-3 -88 -2 88 c-2 68 -5 87 -16 87 -11 0 -16 -14 -19 -47 l-3 -48 -2 48 -2 47
-40 0 -39 0 -4 -62 -3 -63 -2 63 c-1 34 -6 62 -12 62 -6 0 -11 -81 -13 -207
l-2 -208 -3 208 -2 207 -40 0 -40 0 0 -304z m1118 256 c2 -7 -3 -12 -12 -12
-9 0 -16 7 -16 16 0 17 22 14 28 -4z m29 -14 c-3 -8 -6 -5 -6 6 -1 11 2 17 5
13 3 -3 4 -12 1 -19z m-110 -185 c-2 -32 -3 -6 -3 57 0 63 1 89 3 58 2 -32 2
-84 0 -115z m110 105 c-2 -13 -4 -3 -4 22 0 25 2 35 4 23 2 -13 2 -33 0 -45z
m40 -90 c-2 -29 -3 -6 -3 52 0 58 1 81 3 53 2 -29 2 -77 0 -105z m-1015 127
c0 -5 -5 -11 -11 -13 -6 -2 -11 4 -11 13 0 9 5 15 11 13 6 -2 11 -8 11 -13z
m35 -27 c-3 -7 -5 -2 -5 12 0 14 2 19 5 13 2 -7 2 -19 0 -25z m248 -163 l0
-195 -67 0 -68 0 0 195 0 195 68 0 67 0 0 -195z m185 0 l0 -195 -65 0 -65 0 0
195 0 195 65 0 65 0 0 -195z m310 145 l0 -50 -40 0 -40 0 0 -145 0 -145 -62 0
-63 0 3 122 c4 157 1 168 -43 168 l-35 0 0 50 0 50 140 0 140 0 0 -50z m-732
-18 c2 -7 -3 -12 -12 -12 -9 0 -16 7 -16 16 0 17 22 14 28 -4z m870 0 c2 -7
-3 -12 -12 -12 -9 0 -16 7 -16 16 0 17 22 14 28 -4z m62 -75 c-13 -14 -18 5
-12 43 l6 35 7 -35 c4 -19 4 -39 -1 -43z m-968 -34 c1 -35 -1 -62 -6 -60 -5 1
-10 32 -10 69 -1 83 11 76 16 -9z m-48 59 c3 -5 1 -22 -4 -38 -4 -16 -9 -22
-9 -14 -1 8 -4 25 -7 38 -6 21 9 32 20 14z m150 -54 c5 -22 3 -28 -10 -28 -11
0 -14 5 -10 16 3 9 6 23 6 31 0 22 6 14 14 -19z m-157 -110 c-2 -18 -4 -6 -4
27 0 33 2 48 4 33 2 -15 2 -42 0 -60z m1090 20 c-3 -7 -5 -2 -5 12 0 14 2 19
5 13 2 -7 2 -19 0 -25z m-240 -40 c-3 -8 -6 -5 -6 6 -1 11 2 17 5 13 3 -3 4
-12 1 -19z m90 0 c-3 -8 -6 -5 -6 6 -1 11 2 17 5 13 3 -3 4 -12 1 -19z m110
-15 c-3 -10 -5 -4 -5 12 0 17 2 24 5 18 2 -7 2 -21 0 -30z m53 5 c0 -5 -7 -8
-15 -8 -17 0 -18 2 -9 25 5 13 8 14 15 3 5 -7 9 -16 9 -20z m-1190 7 c0 -8 -4
-15 -10 -15 -5 0 -10 7 -10 15 0 8 5 15 10 15 6 0 10 -7 10 -15z m1097 -37
c-3 -7 -5 -2 -5 12 0 14 2 19 5 13 2 -7 2 -19 0 -25z m-1044 -20 c5 -30 3 -38
-10 -38 -11 0 -14 6 -9 23 3 12 6 31 6 41 0 29 6 16 13 -26z m62 12 c-5 -8
-11 -8 -17 -2 -6 6 -7 16 -3 22 5 8 11 8 17 2 6 -6 7 -16 3 -22z m835 9 c0 -5
-7 -9 -15 -9 -15 0 -20 12 -9 23 8 8 24 -1 24 -14z m85 -9 c-5 -8 -11 -8 -17
-2 -6 6 -7 16 -3 22 5 8 11 8 17 2 6 -6 7 -16 3 -22z m110 -30 c-5 -8 -11 -8
-17 -2 -6 6 -7 16 -3 22 5 8 11 8 17 2 6 -6 7 -16 3 -22z m-43 -42 c-15 -15
-26 -4 -18 18 5 13 9 15 18 6 9 -9 9 -15 0 -24z m-1029 -85 c-7 -2 -19 -2 -25
0 -7 3 -2 5 12 5 14 0 19 -2 13 -5z m667 -3 c0 -6 -113 -10 -320 -10 -207 0
-320 4 -320 10 0 6 113 10 320 10 207 0 320 -4 320 -10z m400 -1 c0 -7 -55 -9
-165 -8 -90 1 -162 6 -159 11 8 12 324 10 324 -3z m50 1 c0 -5 -7 -7 -15 -4
-8 4 -15 8 -15 10 0 2 7 4 15 4 8 0 15 -4 15 -10z m-145 -29 c-11 -5 -39 -7
-63 -5 -29 2 -40 -1 -36 -8 5 -7 2 -8 -7 -2 -8 5 -36 10 -63 11 -96 6 -58 13
65 12 74 0 116 -4 104 -8z m119 -30 c-1 -20 -3 -38 -3 -40 -1 -3 -7 4 -15 15
-11 14 -11 21 -3 26 18 12 -12 28 -45 24 -16 -2 -28 0 -28 5 0 5 22 8 48 8
l48 -2 -2 -36z m-383 10 c-11 -7 -11 -10 0 -14 12 -4 11 -7 -1 -16 -11 -8 -12
-11 -2 -11 7 0 10 -5 7 -11 -9 -14 -17 -4 -19 23 -2 24 13 52 23 43 3 -3 -1
-10 -8 -14z m-654 -23 c2 -17 0 -19 -7 -8 -5 8 -6 18 -4 22 8 12 10 10 11 -14z
m580 0 c-3 -8 -6 -5 -6 6 -1 11 2 17 5 13 3 -3 4 -12 1 -19z m110 -10 c-3 -7
-5 -2 -5 12 0 14 2 19 5 13 2 -7 2 -19 0 -25z m29 7 c1 -8 -2 -15 -6 -15 -5 0
-8 9 -7 20 1 21 10 18 13 -5z m34 5 c-6 -11 -13 -20 -16 -20 -2 0 0 9 6 20 6
11 13 20 16 20 2 0 0 -9 -6 -20z m-213 -12 c-3 -8 -6 -5 -6 6 -1 11 2 17 5 13
3 -3 4 -12 1 -19z m464 -21 c-10 -9 -11 -8 -5 6 3 10 9 15 12 12 3 -3 0 -11
-7 -18z m-630 -5 c-7 -2 -18 1 -23 6 -8 8 -4 9 13 5 13 -4 18 -8 10 -11z m118
5 c13 5 14 3 4 -7 -9 -10 -15 -10 -26 -2 -8 7 -18 8 -22 4 -5 -4 -5 -1 0 6 5
9 11 10 17 4 6 -6 18 -8 27 -5z m-59 -9 c0 -14 -18 -17 -28 -5 -8 10 -6 13 9
13 10 0 19 -4 19 -8z m275 2 c-3 -5 -12 -7 -20 -3 -21 7 -19 13 6 13 11 0 18
-4 14 -10z m182 4 c-3 -3 -12 -4 -19 -1 -8 3 -5 6 6 6 11 1 17 -2 13 -5z m56
-1 c-7 -2 -21 -2 -30 0 -10 3 -4 5 12 5 17 0 24 -2 18 -5z"/>
<path d="M421 1114 c0 -11 3 -14 6 -6 3 7 2 16 -1 19 -3 4 -6 -2 -5 -13z"/>
<path d="M430 1040 c0 -18 4 -29 10 -25 6 3 10 3 10 -2 0 -7 157 -10 185 -3 6
1 15 1 20 0 6 -1 40 -2 78 -2 47 1 65 -3 61 -10 -4 -7 -2 -8 5 -4 6 4 23 9 37
12 19 3 24 1 18 -8 -6 -10 -3 -9 9 1 9 7 23 11 31 8 15 -6 24 17 18 46 -5 26
-37 17 -38 -11 -2 -35 -5 -38 -14 -16 -7 19 -16 22 -69 20 -34 0 -61 2 -61 6
0 3 -9 4 -20 1 -11 -3 -20 0 -20 6 0 6 -7 11 -15 11 -18 0 -20 -36 -2 -44 6
-3 3 -4 -8 -3 -11 2 -19 9 -18 18 2 11 -10 14 -61 15 -36 0 -63 -3 -61 -7 6
-10 -53 -1 -75 11 -18 10 -20 7 -20 -20z"/>
<path d="M930 1040 c0 -16 4 -30 9 -30 5 0 11 14 13 30 3 20 0 30 -9 30 -8 0
-13 -12 -13 -30z"/>
<path d="M1020 1051 c0 -7 -5 -9 -11 -5 -6 3 -15 0 -20 -7 -6 -10 -9 -11 -9
-1 0 6 -4 12 -10 12 -5 0 -10 -14 -10 -31 0 -24 3 -29 13 -22 16 13 159 14
151 1 -4 -6 4 -5 16 2 15 8 20 8 16 1 -4 -6 -2 -11 3 -11 6 0 11 -3 11 -7 0
-8 -192 -7 -237 1 -19 3 -23 -2 -24 -23 -1 -21 -2 -22 -6 -5 -4 20 -10 21
-103 22 l-99 0 -4 -46 -3 -47 -2 48 c-2 36 -6 47 -18 47 -14 0 -15 -13 -12
-90 2 -56 -1 -90 -7 -90 -6 0 -9 34 -7 90 3 76 2 90 -12 90 -12 0 -16 -17 -19
-92 l-3 -93 -2 91 -2 91 -30 1 -29 1 -4 -127 -3 -127 -2 127 c-2 113 -4 127
-19 127 -21 -1 -128 0 -160 0 -23 1 -23 -1 -23 -137 l0 -138 33 -32 c18 -18
37 -29 42 -25 4 5 5 3 2 -3 -3 -6 115 -134 263 -285 l269 -274 1 257 c0 272
-6 316 -39 299 -26 -14 -50 12 -31 34 10 13 9 15 -9 15 -16 0 -21 6 -21 25 0
18 5 25 20 25 22 0 26 10 8 28 -8 8 -8 15 2 27 9 11 16 13 24 5 17 -17 36 -11
36 11 0 15 5 20 23 17 12 -2 22 -8 22 -15 0 -20 16 -28 25 -13 13 22 41 -6 34
-35 -4 -17 0 -24 15 -28 27 -7 27 -37 0 -44 -13 -4 -18 -11 -14 -21 8 -22 -14
-45 -31 -31 -10 8 -16 3 -28 -20 -13 -25 -16 -73 -16 -288 l1 -258 40 43 c23
24 37 47 33 54 -4 7 -3 8 5 4 7 -5 25 6 44 27 18 19 134 139 260 266 l227 232
0 139 c0 116 -2 140 -15 140 -11 0 -15 -20 -18 -97 l-3 -98 -2 98 c-2 98 -18
133 -25 55 l-4 -43 -1 43 c-2 37 -5 42 -26 42 -22 0 -25 -5 -29 -47 l-3 -48
-2 48 c-3 66 -20 59 -25 -10 l-3 -58 -2 56 c-1 35 -7 59 -14 62 -10 3 -13 -14
-12 -67 l1 -71 -4 68 c-3 49 -8 67 -18 67 -11 0 -15 -18 -18 -72 l-3 -73 -2
73 c-2 55 -5 72 -16 72 -10 0 -16 -13 -19 -37 l-4 -38 -1 38 c-2 29 -6 37 -21
37 -12 0 -21 -8 -24 -22 l-4 -23 -2 23 c-1 16 -6 22 -18 20 -16 -3 -19 -20
-23 -138 l-6 -135 -2 138 c-2 114 -4 137 -17 137 -8 0 -15 8 -15 18 0 14 2 15
10 2 8 -13 9 -13 14 0 2 8 6 23 9 32 5 14 -1 16 -44 14 -29 -1 -49 2 -49 9 0
7 -3 7 -8 0 -8 -12 -43 -12 -62 0 -9 6 -11 4 -5 -6 8 -12 6 -12 -8 0 -12 9
-17 10 -17 2z m-503 -263 c-2 -35 -3 -9 -3 57 0 66 1 94 3 63 2 -32 2 -86 0
-120z m70 0 c-2 -35 -3 -9 -3 57 0 66 1 94 3 63 2 -32 2 -86 0 -120z m180 0
c-2 -35 -3 -9 -3 57 0 66 1 94 3 63 2 -32 2 -86 0 -120z m20 140 c-3 -7 -5 -2
-5 12 0 14 2 19 5 13 2 -7 2 -19 0 -25z m340 -20 c-2 -13 -4 -5 -4 17 -1 22 1
32 4 23 2 -10 2 -28 0 -40z m40 5 c-3 -10 -5 -2 -5 17 0 19 2 27 5 18 2 -10 2
-26 0 -35z m70 0 c-3 -10 -5 -2 -5 17 0 19 2 27 5 18 2 -10 2 -26 0 -35z m30
-35 c-2 -13 -4 -5 -4 17 -1 22 1 32 4 23 2 -10 2 -28 0 -40z m-845 27 c0 -5
-5 -11 -11 -13 -6 -2 -11 4 -11 13 0 9 5 15 11 13 6 -2 11 -8 11 -13z m548 0
c0 -8 -7 -15 -15 -15 -16 0 -20 12 -8 23 11 12 23 8 23 -8z m350 -39 c-14 -14
-24 0 -16 21 6 15 8 15 16 3 6 -9 5 -19 0 -24z m-533 -58 c-2 -18 -4 -6 -4 27
0 33 2 48 4 33 2 -15 2 -42 0 -60z m128 73 c7 -12 -12 -24 -25 -16 -11 7 -4
25 10 25 5 0 11 -4 15 -9z m252 -23 c-3 -7 -5 -2 -5 12 0 14 2 19 5 13 2 -7 2
-19 0 -25z m70 -15 c-3 -10 -5 -2 -5 17 0 19 2 27 5 18 2 -10 2 -26 0 -35z
m-820 5 c-3 -7 -5 -2 -5 12 0 14 2 19 5 13 2 -7 2 -19 0 -25z m613 7 c0 -8 -4
-15 -9 -15 -13 0 -22 16 -14 24 11 11 23 6 23 -9z m427 -47 c-2 -13 -4 -3 -4
22 0 25 2 35 4 23 2 -13 2 -33 0 -45z m-323 43 c3 -5 -1 -11 -9 -15 -15 -6
-29 7 -18 18 9 9 21 8 27 -3z m306 -6 c0 -8 -7 -15 -15 -15 -8 0 -15 7 -15 15
0 8 7 15 15 15 8 0 15 -7 15 -15z m-1045 -24 c7 -12 -12 -24 -25 -16 -11 7 -4
25 10 25 5 0 11 -4 15 -9z m22 -23 c-3 -7 -5 -2 -5 12 0 14 2 19 5 13 2 -7 2
-19 0 -25z m953 17 c0 -8 -7 -15 -15 -15 -16 0 -20 12 -8 23 11 12 23 8 23 -8z
m-510 -10 c0 -8 -7 -15 -15 -15 -16 0 -20 12 -8 23 11 12 23 8 23 -8z m377 -7
c-3 -8 -6 -5 -6 6 -1 11 2 17 5 13 3 -3 4 -12 1 -19z m-55 -35 c6 -7 5 -14 -2
-18 -18 -11 -27 3 -21 37 3 24 6 27 9 13 2 -11 8 -25 14 -32z m305 15 c-3 -7
-5 -2 -5 12 0 14 2 19 5 13 2 -7 2 -19 0 -25z m-1070 -50 c-2 -13 -4 -5 -4 17
-1 22 1 32 4 23 2 -10 2 -28 0 -40z m911 27 c-3 -3 -9 2 -12 12 -6 14 -5 15 5
6 7 -7 10 -15 7 -18z m142 -7 c0 -5 -7 -8 -15 -8 -15 0 -20 21 -8 33 7 7 23
-11 23 -25z m-187 15 c3 -5 1 -26 -3 -48 -5 -27 -8 -32 -9 -15 -1 14 -4 35 -7
48 -6 20 9 32 19 15z m91 -1 c2 -4 1 -23 -4 -42 -4 -19 -8 -26 -9 -15 -1 11
-4 30 -7 43 -6 21 9 32 20 14z m186 -7 c0 -8 -7 -15 -15 -15 -16 0 -20 12 -8
23 11 12 23 8 23 -8z m-1100 -5 c0 -5 -7 -10 -15 -10 -8 0 -15 5 -15 10 0 6 7
10 15 10 8 0 15 -4 15 -10z m279 -32 c1 -5 -6 -8 -15 -8 -11 0 -14 5 -10 16 3
9 6 21 7 27 0 12 17 -20 18 -35z m48 10 c-3 -7 -5 -2 -5 12 0 14 2 19 5 13 2
-7 2 -19 0 -25z m450 -15 c-3 -10 -5 -4 -5 12 0 17 2 24 5 18 2 -7 2 -21 0
-30z m196 0 c5 -26 3 -33 -9 -33 -12 0 -15 6 -10 23 3 12 6 28 6 36 0 22 6 9
13 -26z m-101 -25 c4 -38 2 -48 -9 -48 -10 0 -13 6 -9 16 3 9 6 32 6 51 0 49
6 39 12 -19z m168 37 c0 -8 -7 -15 -15 -15 -8 0 -15 7 -15 15 0 8 7 15 15 15
8 0 15 -7 15 -15z m-713 -47 c-3 -7 -5 -2 -5 12 0 14 2 19 5 13 2 -7 2 -19 0
-25z m-370 -10 c-3 -8 -6 -5 -6 6 -1 11 2 17 5 13 3 -3 4 -12 1 -19z m820 -40
c-2 -13 -4 -3 -4 22 0 25 2 35 4 23 2 -13 2 -33 0 -45z m-750 30 c-3 -8 -6 -5
-6 6 -1 11 2 17 5 13 3 -3 4 -12 1 -19z m96 -25 c4 -34 2 -43 -10 -43 -10 0
-13 6 -9 16 3 9 6 30 6 46 0 42 6 33 13 -19z m700 -10 c4 -34 2 -43 -10 -43
-10 0 -13 6 -9 16 3 9 6 30 6 46 0 42 6 33 13 -19z m84 -86 c-2 -23 -3 -1 -3
48 0 50 1 68 3 42 2 -26 2 -67 0 -90z m-180 81 c-3 -7 -5 -2 -5 12 0 14 2 19
5 13 2 -7 2 -19 0 -25z m-688 -20 c1 -5 -6 -8 -15 -8 -11 0 -14 5 -10 16 3 9
6 21 7 27 0 12 17 -20 18 -35z m151 -81 c-13 -15 -16 6 -11 68 l5 60 6 -60 c4
-33 4 -64 0 -68z m37 66 c-3 -10 -5 -2 -5 17 0 19 2 27 5 18 2 -10 2 -26 0
-35z m98 7 c-5 -8 -11 -8 -17 -2 -6 6 -7 16 -3 22 5 8 11 8 17 2 6 -6 7 -16 3
-22z m310 21 c3 -5 1 -12 -5 -16 -5 -3 -11 -41 -12 -83 l-2 -77 -5 85 c-3 47
-5 88 -3 93 4 10 20 9 27 -2z m-352 -58 c4 -34 2 -43 -10 -43 -10 0 -13 6 -9
16 3 9 6 30 6 46 0 42 6 33 13 -19z m447 13 c-14 -14 -24 0 -16 21 6 15 8 15
16 3 6 -9 5 -19 0 -24z m47 2 c-3 -8 -6 -5 -6 6 -1 11 2 17 5 13 3 -3 4 -12 1
-19z m-537 -29 c0 -5 -7 -9 -15 -9 -15 0 -20 12 -9 23 8 8 24 -1 24 -14z m549
-46 c1 -7 -6 -13 -15 -13 -12 0 -15 6 -10 23 3 12 6 29 7 37 1 15 16 -24 18
-47z m-472 15 c-3 -7 -5 -2 -5 12 0 14 2 19 5 13 2 -7 2 -19 0 -25z m-64 -47
l-6 -25 -9 23 c-9 25 -1 48 13 34 5 -5 6 -19 2 -32z m339 7 c-15 -15 -26 -4
-18 18 5 13 9 15 18 6 9 -9 9 -15 0 -24z m-275 0 c-3 -8 -6 -5 -6 6 -1 11 2
17 5 13 3 -3 4 -12 1 -19z m113 8 c0 -8 -4 -17 -9 -21 -12 -7 -24 12 -16 25 9
15 25 12 25 -4z m246 -23 c-11 -11 -19 6 -11 24 8 17 8 17 12 0 3 -10 2 -21
-1 -24z m-359 -35 c-3 -7 -5 -2 -5 12 0 14 2 19 5 13 2 -7 2 -19 0 -25z m83
-14 c0 -16 -16 -19 -25 -4 -8 13 4 32 16 25 5 -4 9 -13 9 -21z m217 4 c-3 -8
-6 -5 -6 6 -1 11 2 17 5 13 3 -3 4 -12 1 -19z"/>
<path d="M1232 1035 c-2 -22 2 -25 31 -26 50 -2 71 2 79 15 5 7 8 5 8 -5 0
-26 31 -33 37 -9 6 21 19 27 25 10 2 -5 12 -11 23 -13 11 -1 26 -6 33 -11 16
-10 17 -8 26 25 5 23 2 28 -21 34 -15 3 -29 3 -30 -2 -3 -8 -108 -7 -131 2 -7
3 -10 0 -7 -5 4 -6 -3 -6 -20 0 -40 15 -50 12 -53 -15z"/>
<path d="M923 740 c3 -11 1 -23 -4 -26 -12 -7 -12 -44 0 -44 5 0 7 8 4 18 -2
10 5 26 16 36 20 18 22 18 41 1 11 -10 20 -25 20 -33 0 -9 3 -13 6 -9 4 3 3
14 -1 24 -5 10 -9 25 -9 33 -1 9 -14 15 -40 17 -33 2 -37 0 -33 -17z m27 6 c0
-3 -4 -8 -10 -11 -5 -3 -10 -1 -10 4 0 6 5 11 10 11 6 0 10 -2 10 -4z m40 -6
c0 -5 -2 -10 -4 -10 -3 0 -8 5 -11 10 -3 6 -1 10 4 10 6 0 11 -4 11 -10z"/>
<path d="M943 697 c0 -7 9 -13 19 -13 10 0 18 1 18 3 0 1 -8 7 -18 12 -13 7
-19 6 -19 -2z"/>
</g>
</svg>
